<svg width="402" height="123" viewBox="0 0 402 123" fill="none" xmlns="http://www.w3.org/2000/svg">
    <path d="M137.96 78.8293V108.269H128.68V87.2133H118.12V108.269H108.776V78.8293H137.96ZM149.301 95.5973V90.2213H165.941C165.77 89.0266 165.45 88.024 164.981 87.2133C164.554 86.4026 163.935 85.784 163.125 85.3573C162.357 84.888 161.397 84.6533 160.245 84.6533C158.922 84.6533 157.77 84.952 156.789 85.5493C155.85 86.104 155.103 86.936 154.549 88.0453C153.994 89.112 153.717 90.4346 153.717 92.0133L153.589 93.5493C153.589 95.5546 153.887 97.176 154.485 98.4133C155.125 99.6506 155.957 100.547 156.981 101.101C158.005 101.656 159.157 101.933 160.437 101.933C161.631 101.933 162.677 101.784 163.573 101.485C164.511 101.187 165.322 100.76 166.005 100.205C166.687 99.608 167.263 98.904 167.733 98.0933L176.373 100.205C175.391 101.997 174.218 103.555 172.853 104.877C171.487 106.157 169.802 107.16 167.797 107.885C165.834 108.568 163.423 108.909 160.565 108.909C157.023 108.909 153.994 108.248 151.477 106.925C149.002 105.603 147.103 103.789 145.781 101.485C144.501 99.1386 143.861 96.4933 143.861 93.5493C143.861 92.9946 143.882 92.4613 143.924 91.9493C143.967 91.4373 144.031 90.9253 144.117 90.4133C144.543 87.9813 145.418 85.848 146.741 84.0133C148.106 82.1786 149.919 80.7493 152.181 79.7253C154.485 78.7013 157.237 78.1893 160.437 78.1893C163.85 78.1893 166.73 78.7866 169.077 79.9813C171.466 81.176 173.258 82.8826 174.453 85.1013C175.69 87.32 176.309 89.9866 176.309 93.1013C176.309 93.3573 176.309 93.72 176.309 94.1893C176.309 94.616 176.266 95.0853 176.181 95.5973H149.301ZM192.001 122.349H182.337V78.8293H192.001V122.349ZM216.065 93.5493C216.065 96.9626 215.382 99.8426 214.017 102.189C212.694 104.536 210.966 106.307 208.833 107.501C206.742 108.696 204.481 109.293 202.049 109.293C199.489 109.293 197.27 108.653 195.393 107.373C193.558 106.051 192.15 104.216 191.169 101.869C190.188 99.48 189.697 96.7066 189.697 93.5493C189.697 90.3493 190.188 87.576 191.169 85.2293C192.15 82.8826 193.558 81.0693 195.393 79.7893C197.27 78.4666 199.489 77.8053 202.049 77.8053C204.481 77.8053 206.742 78.4026 208.833 79.5973C210.966 80.792 212.694 82.5626 214.017 84.9093C215.382 87.2133 216.065 90.0933 216.065 93.5493ZM205.889 93.5493C205.889 92.0133 205.569 90.712 204.929 89.6453C204.289 88.5786 203.436 87.768 202.369 87.2133C201.302 86.6586 200.129 86.3813 198.849 86.3813C197.74 86.3813 196.652 86.6586 195.585 87.2133C194.561 87.7253 193.708 88.5146 193.025 89.5813C192.342 90.648 192.001 91.9706 192.001 93.5493C192.001 95.128 192.342 96.4506 193.025 97.5173C193.708 98.584 194.561 99.3946 195.585 99.9493C196.652 100.461 197.74 100.717 198.849 100.717C200.129 100.717 201.302 100.44 202.369 99.8853C203.436 99.3306 204.289 98.52 204.929 97.4533C205.569 96.3866 205.889 95.0853 205.889 93.5493ZM225.613 95.5973V90.2213H242.253C242.082 89.0266 241.762 88.024 241.293 87.2133C240.866 86.4026 240.248 85.784 239.437 85.3573C238.669 84.888 237.709 84.6533 236.557 84.6533C235.234 84.6533 234.082 84.952 233.101 85.5493C232.162 86.104 231.416 86.936 230.861 88.0453C230.306 89.112 230.029 90.4346 230.029 92.0133L229.901 93.5493C229.901 95.5546 230.2 97.176 230.797 98.4133C231.437 99.6506 232.269 100.547 233.293 101.101C234.317 101.656 235.469 101.933 236.749 101.933C237.944 101.933 238.989 101.784 239.885 101.485C240.824 101.187 241.634 100.76 242.317 100.205C243 99.608 243.576 98.904 244.045 98.0933L252.685 100.205C251.704 101.997 250.53 103.555 249.165 104.877C247.8 106.157 246.114 107.16 244.109 107.885C242.146 108.568 239.736 108.909 236.877 108.909C233.336 108.909 230.306 108.248 227.789 106.925C225.314 105.603 223.416 103.789 222.093 101.485C220.813 99.1386 220.173 96.4933 220.173 93.5493C220.173 92.9946 220.194 92.4613 220.237 91.9493C220.28 91.4373 220.344 90.9253 220.429 90.4133C220.856 87.9813 221.73 85.848 223.053 84.0133C224.418 82.1786 226.232 80.7493 228.493 79.7253C230.797 78.7013 233.549 78.1893 236.749 78.1893C240.162 78.1893 243.042 78.7866 245.389 79.9813C247.778 81.176 249.57 82.8826 250.765 85.1013C252.002 87.32 252.621 89.9866 252.621 93.1013C252.621 93.3573 252.621 93.72 252.621 94.1893C252.621 94.616 252.578 95.0853 252.493 95.5973H225.613ZM287.92 78.8293L268.72 122.349H258.992L266.16 105.901L253.424 78.8293H264.048L273.584 102.445L268.592 102.381L278 78.8293H287.92ZM322.127 78.8293V108.269H312.847V87.5973H301.967V98.0293C301.967 100.333 301.54 102.253 300.687 103.789C299.834 105.283 298.383 106.413 296.335 107.181C294.33 107.907 291.556 108.269 288.015 108.269V99.6293C289.295 99.6293 290.383 99.3946 291.279 98.9253C292.218 98.4133 292.687 97.3253 292.687 95.6613V78.8293H322.127ZM329.298 93.5493C329.298 90.4346 330.023 87.7253 331.474 85.4213C332.925 83.1173 334.93 81.3253 337.49 80.0453C340.05 78.7653 342.93 78.1253 346.13 78.1253C349.33 78.1253 352.189 78.7653 354.706 80.0453C357.266 81.3253 359.271 83.1173 360.722 85.4213C362.215 87.7253 362.962 90.4346 362.962 93.5493C362.962 96.6213 362.215 99.3093 360.722 101.613C359.271 103.917 357.266 105.709 354.706 106.989C352.189 108.269 349.33 108.909 346.13 108.909C342.93 108.909 340.05 108.269 337.49 106.989C334.93 105.709 332.925 103.917 331.474 101.613C330.023 99.3093 329.298 96.6213 329.298 93.5493ZM339.218 93.5493C339.218 95.0853 339.538 96.408 340.178 97.5173C340.818 98.584 341.65 99.416 342.674 100.013C343.698 100.611 344.85 100.909 346.13 100.909C347.367 100.909 348.498 100.611 349.522 100.013C350.589 99.416 351.421 98.584 352.018 97.5173C352.658 96.408 352.978 95.0853 352.978 93.5493C352.978 92.0133 352.658 90.6906 352.018 89.5813C351.421 88.472 350.589 87.6186 349.522 87.0213C348.498 86.424 347.367 86.1253 346.13 86.1253C344.85 86.1253 343.698 86.424 342.674 87.0213C341.65 87.6186 340.818 88.472 340.178 89.5813C339.538 90.6906 339.218 92.0133 339.218 93.5493ZM368.65 78.8293H377.93V108.269H368.65V78.8293ZM388.618 78.8293H400.138L387.594 90.9893L401.418 108.269H390.09L376.01 90.9893L388.618 78.8293Z"
          fill="white"/>
    <path d="M85 55.7285H0V111.269H85V55.7285Z" fill="white"/>
    <path d="M42.5 108.455C65.9721 108.455 85 84.1763 85 54.2274C85 24.2784 65.9721 0 42.5 0C19.0279 0 0 24.2784 0 54.2274C0 84.1763 19.0279 108.455 42.5 108.455Z"
          fill="white"/>
    <path d="M100 85.1894H4V108.362H100V85.1894Z" fill="#B1D9E1"/>
    <path d="M99.9996 59.4036H29.437V82.7503H99.9996V59.4036Z" fill="#B1D9E1"/>
    <path d="M99.9996 33.2693H54.7002V56.7902H99.9996V33.2693Z" fill="#B1D9E1"/>
</svg>
